HIERARCHY
ROOT hip
{
  OFFSET 0 0 0
  CHANNELS 6 Xposition Yposition Zposition Zrotation Yrotation Xrotation
  JOINT abdomen
  {
    OFFSET 0 20.6881 -0.73152
    CHANNELS 3 Zrotation Xrotation Yrotation
    JOINT chest
    {
      OFFSET 0 11.7043 -0.48768
      CHANNELS 3 Zrotation Xrotation Yrotation
      JOINT neck
      {
        OFFSET 0 22.1894 -2.19456
        CHANNELS 3 Zrotation Xrotation Yrotation
        JOINT head
        {
          OFFSET -0.24384 7.07133 1.2192
          CHANNELS 3 Zrotation Xrotation Yrotation
          JOINT leftEye
          {
            OFFSET 4.14528 8.04674 8.04672
            CHANNELS 3 Zrotation Xrotation Yrotation
            End Site
            {
              OFFSET 1 0 0
            }
          }
          JOINT rightEye
          {
            OFFSET -3.6576 8.04674 8.04672
            CHANNELS 3 Zrotation Xrotation Yrotation
            End Site
            {
              OFFSET 1 0 0
            }
          }
        }
      }
      JOINT rCollar
      {
        OFFSET -2.68224 19.2634 -4.8768
        CHANNELS 3 Zrotation Xrotation Yrotation
        JOINT rShldr
        {
          OFFSET -8.77824 -1.95073 1.46304
          CHANNELS 3 Zrotation Xrotation Yrotation
          JOINT rForeArm
          {
            OFFSET -28.1742 -1.7115 0.48768
            CHANNELS 3 Zrotation Xrotation Yrotation
            JOINT rHand
            {
              OFFSET -22.5879 0.773209 7.07136
              CHANNELS 3 Zrotation Xrotation Yrotation
              JOINT rThumb1
              {
                OFFSET -1.2192 -0.487915 3.41376
                CHANNELS 3 Zrotation Xrotation Yrotation
                JOINT rThumb2
                {
                  OFFSET -3.37035 -0.52449 3.41376
                  CHANNELS 3 Zrotation Xrotation Yrotation
                  End Site
                  {
                    OFFSET -1.78271 -1.18214 1.43049
                  }
                }
              }
              JOINT rIndex1
              {
                OFFSET -7.75947 0.938293 5.60832
                CHANNELS 3 Zrotation Xrotation Yrotation
                JOINT rIndex2
                {
                  OFFSET -2.54057 -0.884171 1.56538
                  CHANNELS 3 Zrotation Xrotation Yrotation
                  End Site
                  {
                    OFFSET -1.62519 -0.234802 1.16502
                  }
                }
              }
              JOINT rMid1
              {
                OFFSET -8.24714 1.18213 3.41376
                CHANNELS 3 Zrotation Xrotation Yrotation
                JOINT rMid2
                {
                  OFFSET -3.10165 -0.590103 1.0647
                  CHANNELS 3 Zrotation Xrotation Yrotation
                  End Site
                  {
                    OFFSET -2.48547 -0.328903 0.83742
                  }
                }
              }
              JOINT rRing1
              {
                OFFSET -8.82822 0.546677 1.51678
                CHANNELS 3 Zrotation Xrotation Yrotation
                JOINT rRing2
                {
                  OFFSET -2.60934 -0.819778 -0.0198488
                  CHANNELS 3 Zrotation Xrotation Yrotation
                  End Site
                  {
                    OFFSET -2.33842 -0.294052 0.168128
                  }
                }
              }
              JOINT rPinky1
              {
                OFFSET -8.27202 -0.0477905 -0.4584
                CHANNELS 3 Zrotation Xrotation Yrotation
                JOINT rPinky2
                {
                  OFFSET -1.82734 -0.647385 -0.700984
                  CHANNELS 3 Zrotation Xrotation Yrotation
                  End Site
                  {
                    OFFSET -1.69225 -0.51767 -0.607171
                  }
                }
              }
            }
          }
        }
      }
      JOINT lCollar
      {
        OFFSET 2.68224 19.2634 -4.8768
        CHANNELS 3 Zrotation Xrotation Yrotation
        JOINT lShldr
        {
          OFFSET 8.77824 -1.95073 1.46304
          CHANNELS 3 Zrotation Xrotation Yrotation
          JOINT lForeArm
          {
            OFFSET 28.1742 -1.7115 0.48768
            CHANNELS 3 Zrotation Xrotation Yrotation
            JOINT lHand
            {
              OFFSET 22.5879 0.773209 7.07136
              CHANNELS 3 Zrotation Xrotation Yrotation
              JOINT lThumb1
              {
                OFFSET 1.2192 -0.487915 3.41376
                CHANNELS 3 Zrotation Xrotation Yrotation
                JOINT lThumb2
                {
                  OFFSET 3.37035 -0.52449 3.41376
                  CHANNELS 3 Zrotation Xrotation Yrotation
                  End Site
                  {
                    OFFSET 1.78271 -1.18214 1.43049
                  }
                }
              }
              JOINT lIndex1
              {
                OFFSET 7.75947 0.938293 5.60832
                CHANNELS 3 Zrotation Xrotation Yrotation
                JOINT lIndex2
                {
                  OFFSET 2.54057 -0.884171 1.56538
                  CHANNELS 3 Zrotation Xrotation Yrotation
                  End Site
                  {
                    OFFSET 1.62519 -0.234802 1.16502
                  }
                }
              }
              JOINT lMid1
              {
                OFFSET 8.24714 1.18213 3.41376
                CHANNELS 3 Zrotation Xrotation Yrotation
                JOINT lMid2
                {
                  OFFSET 3.10165 -0.590103 1.0647
                  CHANNELS 3 Zrotation Xrotation Yrotation
                  End Site
                  {
                    OFFSET 2.48547 -0.328903 0.83742
                  }
                }
              }
              JOINT lRing1
              {
                OFFSET 8.82822 0.546677 1.51678
                CHANNELS 3 Zrotation Xrotation Yrotation
                JOINT lRing2
                {
                  OFFSET 2.60934 -0.819778 -0.0198488
                  CHANNELS 3 Zrotation Xrotation Yrotation
                  End Site
                  {
                    OFFSET 2.33842 -0.294052 0.168128
                  }
                }
              }
              JOINT lPinky1
              {
                OFFSET 8.27202 -0.0477905 -0.4584
                CHANNELS 3 Zrotation Xrotation Yrotation
                JOINT lPinky2
                {
                  OFFSET 1.82734 -0.647385 -0.700984
                  CHANNELS 3 Zrotation Xrotation Yrotation
                  End Site
                  {
                    OFFSET 1.69225 -0.51767 -0.607171
                  }
                }
              }
            }
          }
        }
      }
    }
  }
  JOINT rButtock
  {
    OFFSET -8.77824 4.35084 1.2192
    CHANNELS 3 Zrotation Xrotation Yrotation
    JOINT rThigh
    {
      OFFSET 0 -1.70687 -2.19456
      CHANNELS 3 Zrotation Xrotation Yrotation
      JOINT rShin
      {
        OFFSET 0 -36.8199 0.73152
        CHANNELS 3 Zrotation Xrotation Yrotation
        JOINT rFoot
        {
          OFFSET 0.73152 -45.1104 -5.12064
          CHANNELS 3 Zrotation Xrotation Yrotation
          End Site
          {
            OFFSET -1.1221 -3.69964 12.103
          }
        }
      }
    }
  }
  JOINT lButtock
  {
    OFFSET 8.77824 4.35084 1.2192
    CHANNELS 3 Zrotation Xrotation Yrotation
    JOINT lThigh
    {
      OFFSET 0 -1.70687 -2.19456
      CHANNELS 3 Zrotation Xrotation Yrotation
      JOINT lShin
      {
        OFFSET 0 -36.8199 0.73152
        CHANNELS 3 Zrotation Xrotation Yrotation
        JOINT lFoot
        {
          OFFSET -0.73152 -45.1104 -5.12064
          CHANNELS 3 Zrotation Xrotation Yrotation
          End Site
          {
            OFFSET 1.1221 -3.69964 12.103
          }
        }
      }
    }
  }
}
MOTION
Frames:	7
Frame Time:	0.03333
0.0 0.0 0.0 0.0 0.0 0.0 0.0 0.0 0.0 0.0 0.0 0.0 0.0 0.0 0.0 0.0 0.0 0.0 0.0 0.0 0.0 0.0 0.0 0.0 0.0 0.0 0.0 0.0 0.0 0.0 0.0 0.0 0.0 0.0 0.0 0.0 0.0 0.0 0.0 0.0 0.0 0.0 0.0 0.0 0.0 0.0 0.0 0.0 0.0 0.0 0.0 0.0 0.0 0.0 0.0 0.0 0.0 0.0 0.0 0.0 0.0 0.0 0.0 0.0 0.0 0.0 0.0 0.0 0.0 0.0 0.0 0.0 0.0 0.0 0.0 0.0 0.0 0.0 0.0 0.0 0.0 0.0 0.0 0.0 0.0 0.0 0.0 0.0 0.0 0.0 0.0 0.0 0.0 0.0 0.0 0.0 0.0 0.0 0.0 0.0 0.0 0.0 0.0 0.0 0.0 0.0 0.0 0.0 0.0 0.0 0.0 0.0 0.0 0.0 0.0 0.0 0.0 0.0 0.0 0.0 0.0 0.0 0.0 0.0 0.0 0.0 0.0 0.0 0.0 0.0 0.0 0.0
-7.539 69.6128 -1.5337999999999998 -0.702735 -72.865188 -9.305602 -8.040165 19.399846 -123.645476 0.009767 5.243355 126.288886 -11.91565 28.046771 -88.682321 35.058308 12.552941 60.256656 0.002901 0.0 0.00213 -0.002825 -0.0 0.00223 0.118274 -0.713991 -0.158313 -119.075929 24.607786 -164.230264 -176.657781 -20.234785 -120.799755 -8.260823 20.993397 0.34925 -103.198905 36.330647 60.11163 23.49737 -32.095419 24.537818 -151.354322 -17.158473 121.132187 -62.154777 57.360255 46.045721 -82.840517 61.112455 74.532167 -2.001358 14.749016 2.83994 -0.000981 0.022706 0.006738 -155.836894 -54.268855 178.956494 -141.240842 0.678865 -138.263573 16.40278 41.577342 5.921944 14.149381 43.061261 -15.997476 124.50215 -11.460123 -127.190773 -174.483552 19.544996 87.766732 12.039736 6.413205 1.580772 173.771426 -11.439607 -89.891589 -125.645143 -59.45003 -91.607033 -12.217821 -21.784383 5.119782 64.232176 49.160909 -51.366919 -6.534835 -20.414708 2.716237 151.84483 24.968874 -137.154655 145.107236 -0.953857 178.829845 144.85682 -51.030868 167.230079 -32.021507 83.32044 -6.223882 -14.429073 41.886509 -7.187 179.988006 75.751151 0.009868 153.463823 2.261977 85.480912 80.025145 10.908173 87.573559 145.988961 54.868408 -162.57947 0.002462 0.001336 0.000616 8.465242 8.400836 -0.0 -13.351547 53.68115 -63.691316 -162.103909 45.000838 -105.960167
-12.307500000000001 70.163 -3.0185 2.319286 -71.535435 -9.958208 -9.39068 20.5348 2.951007 6.438845 -6.613242 -0.620934 -9.347582 18.503819 -33.644172 22.635634 -15.002959 10.825646 -0.005542 -0.0 0.000338 0.000186 0.0 0.000242 0.102801 -0.619766 -0.137357 -147.817071 65.352932 -144.484481 10.354724 61.807906 -100.207971 171.982879 -17.34286 143.487496 4.472885 -4.456028 -0.517489 -123.903564 -12.866526 111.702585 -6.816458 10.181314 4.248452 -167.390178 -20.143254 109.686081 1.280264 -3.803175 -0.681161 -167.32798 -17.308622 144.22706 -145.122361 1.893322 -179.722561 11.441865 58.802122 -1.654204 -143.937161 8.26536 -140.719842 -162.339986 55.877369 -146.672753 78.728506 68.390029 -81.8078 -74.866956 -24.016131 -83.924322 178.684457 16.222435 -53.829773 173.650336 1.144842 -142.171386 1.508801 1.483336 -0.250842 79.271156 24.170169 -72.905849 0.326519 0.530142 -0.186544 113.496073 38.231699 -88.865498 17.258901 35.487585 -12.859334 7.209031 26.206469 -6.082554 74.840208 72.960027 -92.828337 -5.873255 1.780751 4.316109 163.637021 74.573958 150.521852 1.954584 -8.12965 4.168171 -179.999016 75.749034 -0.000673 155.76138 15.702873 -0.0 -11.810882 51.819131 139.828674 -117.648891 23.206814 113.756487 -179.999016 75.749034 -0.000673 -109.953388 79.535826 -159.912666 -58.101073 -3.430781 -92.606361 -135.964154 -28.06321 162.485486
-16.6495 69.1244 -5.3966 7.044182 -70.149528 -12.127457 -9.861204 17.608725 2.615196 6.628864 -6.707809 -1.717773 7.715981 20.36636 72.980814 -28.11452 -0.122821 -100.159149 -0.000942 0.0 -0.003817 -0.000817 -0.0 0.001856 -157.879001 -65.637619 175.446913 -50.311149 -18.850433 -28.411055 76.893167 3.239333 -69.491039 -158.399505 52.585761 132.830135 -78.031462 38.688919 42.412106 -130.535886 -22.437622 81.676352 -50.388016 40.825692 40.024484 -163.875055 -10.016823 112.362425 -12.845057 28.996717 9.149915 3.198362 0.423593 0.056454 0.004836 1.770534 0.555642 -153.202482 22.496467 168.515318 -124.851363 -29.039275 -122.622482 -159.148632 50.639546 -147.338364 13.413592 41.902796 -15.220574 -40.560245 18.657892 -51.059568 -31.968086 -22.840989 -109.064077 18.655311 22.933665 -2.527846 0.441154 0.435444 -0.069718 -66.918298 -78.769337 0.135645 151.350614 -17.158664 -121.134254 -145.185811 -67.164035 -87.062398 -7.903416 -24.807724 3.013394 -7.164895 -12.325315 1.204095 0.01545 -1.323013 0.416766 -11.683841 -33.426474 4.014429 25.538052 -38.087257 24.598882 145.199642 7.196616 142.271503 0.000207 0.000134 0.000207 -36.16804 -47.561639 -0.0 26.344904 46.395046 128.101953 101.506219 43.312519 -146.610837 179.999508 75.749508 0.000337 -108.726365 81.215455 24.009131 55.727943 -2.258679 89.532394 76.067369 58.172528 167.594873
-20.2774 67.7837 -7.5643 7.651398 -70.780198 -10.100829 -6.697917 11.516179 -160.018061 -2.94315 4.272524 159.985614 8.693548 27.09279 113.100553 -29.04759 21.041646 -133.852487 0.001515 -0.0 -0.000119 -0.004178 0.0 -0.000627 -150.169254 21.535407 155.275608 102.468165 -31.365336 120.650076 165.727332 49.209114 100.357796 174.681866 -9.299304 144.16542 -169.148804 -6.830531 89.916148 -121.602442 12.065692 57.311844 -77.667517 43.030188 64.538415 -170.117323 -19.632729 113.811064 -0.569719 1.648575 0.322156 -7.302624 26.197783 6.027057 -145.120298 0.225717 -179.201358 11.797055 26.401605 -5.987364 -26.562939 -38.861924 -25.604132 -159.265614 55.736547 -149.530135 -3.23847 -26.386768 5.173906 113.867762 10.780654 165.443564 -123.12972 -46.364939 129.578378 24.576911 34.670924 -7.148554 103.198982 36.329643 -60.111015 20.926413 -13.23514 -30.975569 90.225135 41.073067 -75.797082 167.091146 -14.985747 -114.857942 158.521414 -0.192391 -142.144565 176.783974 -42.235943 -142.389109 -0.004369 1.770221 -0.557693 154.375891 12.772231 -170.106639 80.93748 -51.226584 79.36034 -42.259312 80.375559 4.868253 0.000573 0.000331 0.000573 -35.690625 -51.970167 44.561948 53.456005 12.356007 21.119841 6.412104 0.570152 -90.892085 -0.000117 -0.001229 0.000151 13.465588 8.642258 -84.468052 -60.318173 3.975454 -100.765484 -109.178015 -28.170205 168.580728
-23.5165 66.9939 -9.0106 -0.107388 -75.769525 -2.772489 -4.658727 17.678689 1.232294 3.171003 -8.723969 0.679081 6.6778 18.853517 62.519394 -27.806756 -6.407536 -87.841779 0.004627 0.0 0.000886 -0.001389 0.0 -0.004482 -9.651624 34.836125 11.199553 -108.786037 -13.490995 161.465116 161.919386 40.73813 -110.566622 -15.162459 37.771862 3.636596 -160.05239 2.213373 88.877784 -135.797584 4.575195 66.279182 24.076217 -42.306361 -5.558448 170.879268 -49.698246 99.72741 -158.522777 -0.192009 142.145072 -163.269579 -4.789414 142.967831 0.002897 0.063801 0.01981 9.149541 13.411243 1.768155 -157.333286 57.246288 -150.510064 -155.944085 36.137835 -146.288916 -3.206338 -26.010397 5.105274 105.755587 -15.804497 163.037525 -104.205242 -27.702681 117.164356 58.906127 61.575892 -38.301791 176.296322 -13.919451 -89.718486 -72.841002 -70.878689 -55.670772 -10.747212 -19.047999 4.724302 140.360215 13.213544 -106.836845 160.671999 -6.668391 -143.243893 5.104753 21.25106 -4.819423 73.162272 -72.144067 90.197398 143.411555 62.554278 -162.978818 -4.764463 13.903003 -4.30572 -36.682884 81.024344 0.408292 -179.987702 75.75058 -0.008415 163.697173 14.555009 3.882384 -5.296487 54.166712 42.633467 127.959964 -57.347753 0.961609 -179.994562 75.748689 -0.00561 -122.082766 73.401258 120.995635 11.663032 -67.100837 7.95186 -117.316189 -20.659421 156.890015
-25.6527 67.082 -10.1405 5.27312 -77.900917 -8.0144 -2.811432 15.294525 -114.465924 4.210403 3.568693 115.78197 -11.005798 31.355354 -113.129448 34.941129 25.388175 84.586121 0.001896 0.0 0.000141 0.001896 0.0 0.000141 1.989932 -14.052959 -2.880866 68.163872 28.816428 -20.69008 -23.334339 -13.656497 45.073122 0.412104 -4.14267 -0.344151 -98.859128 37.197825 57.120516 71.756359 -47.328715 33.976635 88.792134 -75.499196 40.050346 141.867809 -65.109817 78.278628 -167.374053 -28.008542 145.269877 2.797612 1.008239 0.485089 -145.065863 -3.225878 -178.112744 11.402226 63.096123 -0.717134 -161.70685 70.564279 -151.024299 43.574516 80.418672 -8.060209 83.951322 68.259097 -87.085804 105.220746 16.387204 -96.001623 -80.659143 -27.574029 97.527451 129.446738 59.156913 -105.735522 -51.059091 -41.20442 -12.856635 15.03268 -8.481378 17.088502 4.706191 7.223958 -2.85573 151.850434 1.493718 -109.038676 36.036127 51.723079 -29.83238 155.778264 15.560067 -139.815143 -0.004583 1.772309 -0.556879 156.719057 -32.208858 -175.63643 24.991051 -37.658364 24.0616 125.704321 -31.736213 124.764957 179.677428 75.748967 0.24862 164.28247 13.125544 51.098739 47.279674 45.578377 -115.55487 -19.546678 -41.882791 78.192838 0.002997 0.001503 0.001499 14.2505 5.005415 -71.040624 -66.105508 11.511351 -61.368217 64.713576 17.554299 172.678532
